<?xml version="1.0" encoding="utf-8"?>
<!-- Generator: Adobe Illustrator 17.0.0, SVG Export Plug-In . SVG Version: 6.00 Build 0)  -->
<!DOCTYPE svg PUBLIC "-//W3C//DTD SVG 1.1//EN" "http://www.w3.org/Graphics/SVG/1.1/DTD/svg11.dtd">
<svg version="1.1" id="Laag_1" xmlns="http://www.w3.org/2000/svg" xmlns:xlink="http://www.w3.org/1999/xlink" x="0px" y="0px"
	 width="155.906px" height="56.693px" viewBox="0 0 155.906 56.693" enable-background="new 0 0 155.906 56.693"
	 xml:space="preserve">
<g>
	<path fill="#FFFFFF" d="M9.04,27.827l0.865,0.001c0.77,0.001,1.298-0.46,1.3-1.451c0.001-0.952-0.377-1.495-1.349-1.496
		l-0.812-0.002L9.04,27.827z M7.101,23.437l3.404,0.005c1.975,0.002,2.648,1.455,2.646,2.91c-0.003,2.011-1.235,2.918-3.072,2.916
		l-1.041-0.001l-0.005,3.871l-1.946-0.004L7.101,23.437z"/>
	<path fill="#FFFFFF" d="M20.153,23.456l-0.011,6.763c-0.001,0.964,0.227,1.684,1.133,1.686c0.906,0.001,1.136-0.719,1.138-1.682
		l0.009-6.764l1.947,0.003l-0.01,6.763c-0.003,2.474-1.503,3.121-3.086,3.119c-1.579-0.002-3.078-0.534-3.075-3.128l0.01-6.764
		L20.153,23.456z"/>
	<path fill="#FFFFFF" d="M31.754,27.71l0.812,0.002c0.932,0.001,1.46-0.407,1.462-1.453c0.001-0.895-0.472-1.344-1.35-1.346
		l-0.919-0.001L31.754,27.71z M29.815,23.47l3.593,0.005c1.595,0.002,2.566,0.846,2.563,2.501c-0.002,1.291-0.516,2.16-1.61,2.39
		v0.028c1.324,0.177,1.525,0.911,1.549,2.961c0.012,1.02,0.064,1.551,0.429,1.74v0.082l-2.108-0.003
		c-0.188-0.272-0.229-0.639-0.241-1.019l-0.051-1.86c-0.026-0.761-0.362-1.224-1.147-1.225l-1.041-0.001l-0.005,4.102L29.8,33.167
		L29.815,23.47z"/>
	<polygon fill="#FFFFFF" points="41.584,23.487 44.475,23.491 45.843,30.339 45.871,30.339 47.271,23.495 50.15,23.5 50.136,33.198 
		48.352,33.193 48.364,25.453 48.337,25.453 46.61,33.191 45.097,33.189 43.39,25.446 43.364,25.446 43.352,33.186 41.57,33.185 	
		"/>
	<polygon fill="#FFFFFF" points="61.147,23.516 61.145,25.118 57.7,25.112 57.697,27.394 60.94,27.4 60.938,29.001 57.694,28.997 
		57.691,31.605 61.272,31.611 61.27,33.213 55.743,33.205 55.757,23.508 	"/>
	<path fill="#FFFFFF" d="M68.413,27.764l0.81,0.002c0.933,0.001,1.46-0.407,1.462-1.453c0.002-0.895-0.471-1.344-1.349-1.345
		l-0.919-0.002L68.413,27.764z M66.472,23.523l3.593,0.005c1.595,0.002,2.566,0.846,2.563,2.501c-0.001,1.291-0.516,2.16-1.61,2.389
		v0.029c1.322,0.177,1.526,0.911,1.549,2.961c0.012,1.019,0.064,1.551,0.429,1.74v0.082l-2.108-0.003
		c-0.188-0.272-0.228-0.639-0.241-1.02l-0.051-1.859c-0.026-0.761-0.363-1.224-1.147-1.225l-1.04-0.001l-0.006,4.1l-1.947-0.002
		L66.472,23.523z"/>
	<polygon fill="#FFFFFF" points="83.592,23.549 83.59,25.151 80.145,25.144 80.142,27.426 83.384,27.433 83.382,29.035 80.14,29.03 
		80.135,31.639 83.715,31.644 83.713,33.247 78.187,33.238 78.2,23.54 	"/>
	<polygon fill="#FFFFFF" points="91.158,23.56 93.5,30.204 93.526,30.204 93.536,23.563 95.32,23.566 95.306,33.263 93.089,33.26 
		90.721,26.466 90.694,26.466 90.683,33.257 88.9,33.253 88.915,23.557 	"/>
	<path fill="#FFFFFF" d="M102.916,31.835l0.865,0.001c1.35,0.002,1.621-0.853,1.624-3.488c0.003-2.201-0.17-3.329-1.657-3.331
		l-0.823-0.001L102.916,31.835z M100.981,23.575l3.189,0.004c2.703,0.004,3.188,1.865,3.183,4.717
		c-0.005,3.435-0.738,4.983-3.319,4.98l-3.067-0.004L100.981,23.575z"/>
	<path fill="#FFFFFF" d="M140.853,39.31c-0.203-0.347-0.617-0.505-1-0.386c0,0-7.148,2.235-8.894,2.78
		c0.005-6.358,0.012-15.957,0.012-15.957c0-0.349-0.208-0.665-0.529-0.801c-0.319-0.137-0.689-0.066-0.937,0.176l-13.859,13.491
		c-0.287,0.281-0.345,0.722-0.141,1.069c0.205,0.345,0.618,0.505,1,0.386c0,0,7.149-2.237,8.894-2.783
		c-0.004,6.358-0.01,15.959-0.01,15.959c0,0.348,0.207,0.663,0.527,0.799c0.319,0.137,0.689,0.067,0.938-0.176l13.857-13.488
		C140.998,40.097,141.058,39.654,140.853,39.31"/>
	<path fill="#FFFFFF" d="M148.699,17.014c-0.205-0.345-0.619-0.505-1-0.386c0,0-7.15,2.236-8.894,2.781
		c0.003-6.358,0.01-15.958,0.01-15.958c0-0.348-0.206-0.664-0.527-0.801c-0.319-0.136-0.688-0.066-0.939,0.177l-13.857,13.491
		c-0.286,0.279-0.346,0.722-0.141,1.068c0.203,0.346,0.617,0.506,1,0.387c0,0,7.147-2.237,8.893-2.784
		c-0.004,6.358-0.01,15.958-0.01,15.958c0,0.349,0.208,0.665,0.527,0.801c0.32,0.137,0.69,0.066,0.939-0.176l13.857-13.488
		C148.843,17.802,148.902,17.36,148.699,17.014"/>
	<path fill="#FFFFFF" d="M131.175,18.872c-0.203-0.345-0.617-0.505-1-0.385c0,0-7.148,2.236-8.893,2.781
		c0.004-6.358,0.011-15.956,0.011-15.956c0-0.35-0.208-0.665-0.527-0.802c-0.321-0.136-0.691-0.065-0.939,0.177l-13.857,13.491
		c-0.289,0.279-0.347,0.722-0.142,1.069c0.204,0.345,0.618,0.505,0.999,0.385c0,0,7.148-2.237,8.894-2.783
		c-0.004,6.357-0.01,15.958-0.01,15.958c0,0.349,0.207,0.664,0.527,0.8c0.319,0.137,0.688,0.065,0.938-0.176l13.857-13.488
		C131.32,19.66,131.38,19.218,131.175,18.872"/>
</g>
</svg>
